<svg width="5" height="8" viewBox="0 0 5 8" fill="none" xmlns="http://www.w3.org/2000/svg">
<path d="M2.68217 6.40236L0.793707 5.07912C0.772602 5.06433 0.746649 5.0897 0.760944 5.11114L2.65209 7.9476C2.69822 8.01678 2.79989 8.01678 2.84602 7.9476L4.73717 5.11114C4.75146 5.0897 4.72551 5.06433 4.7044 5.07912L2.81595 6.40236C2.77576 6.43048 2.72232 6.43048 2.68217 6.40236Z" fill="#0094E8"/>
<path d="M4.98447 3.91236L2.85103 0.0605574C2.80665 -0.0195348 2.69149 -0.0195348 2.64712 0.0605574L0.513672 3.91236H4.98447Z" fill="#0094E8"/>
<path d="M2.74927 3.91236H4.98463L2.85121 0.0605573C2.82902 0.0205112 2.78913 0.000488281 2.74927 0.000488281V3.91236Z" fill="#0094E8"/>
<path d="M2.68233 5.55539L0.54918 4.0607C0.482955 4.01429 0.482955 3.91621 0.54918 3.8698L2.68233 2.37511C2.72247 2.34697 2.77593 2.34697 2.81609 2.37511L4.94925 3.8698C5.01547 3.91621 5.01547 4.01429 4.94925 4.0607L2.81609 5.55539C2.77593 5.58353 2.72247 5.58353 2.68233 5.55539Z" fill="#0094E8"/>
<path d="M2.8159 5.55539L4.94906 4.0607C5.01528 4.01429 5.01528 3.91621 4.94906 3.8698L2.8159 2.37511C2.79583 2.36104 2.77243 2.354 2.74902 2.354V5.57648C2.77243 5.5765 2.79583 5.56946 2.8159 5.55539Z" fill="#0094E8"/>
<path d="M4.36243 3.75138C4.397 3.80185 4.38733 3.8743 4.33332 3.91236H4.98461L2.85121 0.0605573C2.82902 0.0205112 2.78913 0.000488281 2.74927 0.000488281V0.838863L4.36243 3.75138Z" fill="#0094E8"/>
<path d="M2.84598 7.9476L4.73712 5.11114C4.75142 5.0897 4.72547 5.06433 4.70436 5.07912L2.8159 6.40236C2.79583 6.41643 2.77243 6.42346 2.74902 6.42346V7.99949C2.78598 7.99951 2.82294 7.98222 2.84598 7.9476Z" fill="#0094E8"/>
<path d="M4.94906 3.87145L4.09907 3.27588L4.36221 3.75098C4.39684 3.80153 4.3871 3.87418 4.33285 3.91217L2.74902 5.02194V5.57815C2.77243 5.57815 2.79581 5.57111 2.8159 5.55704L4.94906 4.06235C5.01528 4.01594 5.01528 3.91786 4.94906 3.87145Z" fill="#0094E8"/>
<path d="M4.70436 5.07912L3.70684 5.77808L2.74902 7.21469V7.99951C2.78598 7.99951 2.82291 7.98222 2.84598 7.94763L4.73712 5.11116C4.75144 5.0897 4.72547 5.06433 4.70436 5.07912Z" fill="#0094E8"/>
</svg>
