<svg width="28" height="23" viewBox="0 0 28 23" fill="none" xmlns="http://www.w3.org/2000/svg">
<ellipse cx="13.9397" cy="11.0707" rx="13.9397" ry="11.0707" fill="#FCFCFD"/>
<g clip-path="url(#clip0_1124_11183)">
<path d="M7.42267 10.1472H16.8436C17.2927 10.1472 17.6568 9.85805 17.6568 9.5014C17.6568 9.14474 17.2927 8.85562 16.8436 8.85562H7.42267L9.28714 7.37489C9.60468 7.1227 9.60468 6.7138 9.28714 6.4616C8.96959 6.20941 8.45471 6.20941 8.13716 6.4616L4.88454 9.04475C4.8656 9.0598 4.84768 9.07563 4.83068 9.0921C4.82298 9.09954 4.81627 9.10742 4.80907 9.11507C4.80038 9.12428 4.79142 9.13327 4.78334 9.14286C4.7756 9.15204 4.7689 9.16157 4.76181 9.17098C4.75529 9.17964 4.74843 9.18812 4.7424 9.19705C4.73592 9.20664 4.73044 9.21654 4.72464 9.22635C4.71912 9.23564 4.71328 9.24479 4.70829 9.25432C4.70333 9.26386 4.69929 9.2736 4.69495 9.28329C4.69034 9.29349 4.68542 9.30354 4.68146 9.31396C4.67776 9.32364 4.67505 9.33348 4.67197 9.34329C4.66857 9.35391 4.66484 9.36442 4.66213 9.37526C4.65931 9.38661 4.65763 9.39805 4.65558 9.40946C4.6539 9.41888 4.65161 9.42817 4.65043 9.43771C4.64517 9.48009 4.64517 9.5228 4.65043 9.56518C4.65161 9.57471 4.65386 9.58398 4.65558 9.59342C4.65763 9.60483 4.65931 9.61631 4.66217 9.62763C4.66488 9.63847 4.66861 9.64894 4.672 9.65957C4.67509 9.66937 4.6778 9.67921 4.68149 9.6889C4.68546 9.69931 4.69038 9.70939 4.69499 9.71956C4.69937 9.72925 4.70337 9.739 4.70833 9.74853C4.71328 9.75807 4.71915 9.76718 4.72468 9.77647C4.73051 9.78628 4.736 9.79618 4.74248 9.80581C4.7485 9.81471 4.75533 9.82315 4.76184 9.83181C4.76893 9.84125 4.77564 9.85079 4.78338 9.85999C4.79142 9.86956 4.80038 9.87852 4.80903 9.88772C4.81627 9.89541 4.82298 9.90328 4.83072 9.91076C4.84761 9.9271 4.86541 9.94281 4.8842 9.95774C4.88435 9.95786 4.88443 9.95798 4.88458 9.95807L8.13716 12.5412C8.45471 12.7934 8.96959 12.7934 9.28714 12.5412C9.60468 12.289 9.60468 11.8801 9.28714 11.6279L7.42267 10.1472Z" fill="#23262F"/>
<path d="M23.9779 13.7856C23.9857 13.7781 23.9924 13.7702 23.9997 13.7625C24.0083 13.7534 24.0173 13.7444 24.0253 13.7349C24.033 13.7257 24.0397 13.7161 24.0468 13.7067C24.0533 13.698 24.0601 13.6896 24.0661 13.6807C24.0726 13.6711 24.0781 13.6612 24.084 13.6513C24.0895 13.6421 24.0953 13.6329 24.1003 13.6234C24.1052 13.6139 24.1093 13.6042 24.1136 13.5945C24.1182 13.5843 24.1231 13.5742 24.1271 13.5638C24.1308 13.5541 24.1335 13.5443 24.1366 13.5345C24.14 13.5239 24.1437 13.5133 24.1464 13.5025C24.1492 13.4912 24.1509 13.4797 24.153 13.4683C24.1547 13.4589 24.157 13.4497 24.1582 13.4401C24.1634 13.3977 24.1634 13.355 24.1582 13.3126C24.157 13.3031 24.1547 13.2938 24.153 13.2844C24.151 13.273 24.1493 13.2615 24.1464 13.2502C24.1437 13.2393 24.14 13.2289 24.1366 13.2182C24.1335 13.2084 24.1308 13.1986 24.1271 13.1889C24.1231 13.1785 24.1182 13.1684 24.1136 13.1582C24.1092 13.1485 24.1052 13.1388 24.1003 13.1293C24.0953 13.1198 24.0895 13.1106 24.084 13.1014C24.0781 13.0915 24.0726 13.0816 24.0661 13.072C24.0601 13.0631 24.0533 13.0547 24.0468 13.046C24.0397 13.0366 24.033 13.027 24.0253 13.0178C24.0172 13.0083 24.0083 12.9993 23.9997 12.9902C23.9924 12.9825 23.9857 12.9746 23.9779 12.9671C23.9612 12.9509 23.9435 12.9353 23.9249 12.9205C23.9246 12.9202 23.9243 12.92 23.9241 12.9198L20.6715 10.3366C20.3539 10.0844 19.839 10.0844 19.5215 10.3366C19.2039 10.5888 19.2039 10.9977 19.5215 11.2499L21.386 12.7306H11.965C11.5159 12.7306 11.1519 13.0197 11.1519 13.3764C11.1519 13.7331 11.5159 14.0222 11.965 14.0222H21.386L19.5215 15.5029C19.2039 15.7551 19.2039 16.164 19.5215 16.4162C19.839 16.6684 20.3539 16.6684 20.6715 16.4162L23.9241 13.833C23.9244 13.8328 23.9246 13.8326 23.9249 13.8323C23.9435 13.8174 23.9612 13.8018 23.9779 13.7856Z" fill="#23262F"/>
</g>
<defs>
<clipPath id="clip0_1124_11183">
<rect width="19.5156" height="15.499" fill="white" transform="translate(4.64697 3.68945)"/>
</clipPath>
</defs>
</svg>
