<svg width="4" height="9" viewBox="0 0 4 9" fill="none" xmlns="http://www.w3.org/2000/svg">
<path d="M2.95078 0.56C3.11078 0.352 3.27478 0.26 3.44278 0.284C3.65078 0.316 3.71878 0.547999 3.64678 0.98C3.58278 1.404 3.37478 2.076 3.02278 2.996C2.50278 4.348 2.09878 5.408 1.81078 6.176C1.47478 7.096 1.23478 7.668 1.09078 7.892C0.954779 8.116 0.798779 8.18 0.622779 8.084C0.214779 7.876 0.298779 7.044 0.874779 5.588C0.946779 5.412 1.13878 4.912 1.45078 4.088C1.77078 3.264 2.05878 2.54 2.31478 1.916C2.57878 1.284 2.79078 0.832 2.95078 0.56Z" fill="#0094E8"/>
</svg>
