<svg width="21" height="11" viewBox="0 0 21 11" fill="none" xmlns="http://www.w3.org/2000/svg">
<path d="M3.42243 4.14754H12.8434C13.2925 4.14754 13.6565 3.85842 13.6565 3.50176C13.6565 3.14511 13.2925 2.85598 12.8434 2.85598H3.42243L5.28689 1.37526C5.60444 1.12307 5.60444 0.714161 5.28689 0.46197C4.96934 0.209779 4.45447 0.209779 4.13692 0.46197L0.884296 3.04512C0.865352 3.06016 0.847438 3.076 0.830438 3.09246C0.822738 3.09991 0.81603 3.10778 0.808826 3.11544C0.800135 3.12464 0.791178 3.13363 0.783097 3.14323C0.775359 3.1524 0.768651 3.16194 0.761561 3.17135C0.755043 3.18001 0.748183 3.18848 0.74216 3.19741C0.73568 3.20701 0.730192 3.21691 0.724398 3.22672C0.718871 3.23601 0.713039 3.24515 0.708046 3.25469C0.703091 3.26422 0.69905 3.27397 0.694705 3.28366C0.690093 3.29386 0.685176 3.30391 0.681212 3.31432C0.677515 3.32401 0.674808 3.33385 0.671721 3.34366C0.668329 3.35428 0.664593 3.36478 0.661887 3.37562C0.659066 3.38697 0.657389 3.39842 0.655331 3.40983C0.653654 3.41924 0.651367 3.42854 0.650185 3.43807C0.644925 3.48045 0.644925 3.52316 0.650185 3.56555C0.651367 3.57508 0.653616 3.58434 0.655331 3.59379C0.657389 3.6052 0.659066 3.61667 0.661925 3.628C0.664631 3.63883 0.668367 3.64931 0.671759 3.65993C0.674847 3.66974 0.677553 3.67958 0.68125 3.68926C0.685214 3.69968 0.690131 3.70976 0.694743 3.71993C0.699127 3.72962 0.703129 3.73936 0.708084 3.7489C0.713039 3.75843 0.718909 3.76755 0.724436 3.77684C0.730268 3.78665 0.735757 3.79655 0.742236 3.80617C0.748259 3.81507 0.755082 3.82352 0.761599 3.83218C0.768689 3.84162 0.775398 3.85116 0.783135 3.86036C0.791178 3.86992 0.800135 3.87888 0.808788 3.88809C0.81603 3.89578 0.822738 3.90365 0.830476 3.91112C0.847361 3.92747 0.865162 3.94318 0.883953 3.9581C0.884106 3.95823 0.884182 3.95835 0.884334 3.95844L4.13692 6.54159C4.45447 6.79378 4.96934 6.79378 5.28689 6.54159C5.60444 6.2894 5.60444 5.88049 5.28689 5.6283L3.42243 4.14754Z" fill="#23262F"/>
<path d="M19.9774 7.78574C19.9852 7.77824 19.9919 7.77034 19.9992 7.76262C20.0078 7.75347 20.0168 7.74451 20.0248 7.73498C20.0325 7.72578 20.0393 7.71621 20.0463 7.70677C20.0528 7.69814 20.0596 7.68969 20.0656 7.68082C20.0721 7.6712 20.0776 7.66127 20.0835 7.65143C20.089 7.64217 20.0948 7.63306 20.0998 7.62355C20.1047 7.61401 20.1088 7.60427 20.1131 7.59458C20.1177 7.58438 20.1227 7.57433 20.1266 7.56392C20.1303 7.55423 20.133 7.54436 20.1361 7.53458C20.1395 7.52396 20.1432 7.51345 20.1459 7.50265C20.1488 7.49129 20.1504 7.47985 20.1525 7.46844C20.1542 7.45903 20.1565 7.44976 20.1577 7.4402C20.1629 7.39782 20.1629 7.3551 20.1577 7.31272C20.1565 7.30319 20.1542 7.29392 20.1525 7.28448C20.1505 7.27307 20.1488 7.2616 20.1459 7.25027C20.1432 7.23944 20.1395 7.22896 20.1361 7.21834C20.133 7.20853 20.1303 7.19869 20.1266 7.189C20.1227 7.17859 20.1177 7.16851 20.1131 7.15834C20.1087 7.14865 20.1047 7.1389 20.0998 7.12937C20.0948 7.11986 20.089 7.11075 20.0835 7.10149C20.0776 7.09165 20.0721 7.08172 20.0656 7.0721C20.0596 7.06323 20.0528 7.05478 20.0463 7.04615C20.0393 7.03671 20.0325 7.02714 20.0248 7.01794C20.0167 7.0084 20.0078 6.99944 19.9992 6.9903C19.9919 6.98258 19.9852 6.97468 19.9774 6.96717C19.9607 6.95098 19.943 6.93539 19.9244 6.92056C19.9241 6.92032 19.9238 6.92007 19.9236 6.91986L16.671 4.33671C16.3534 4.08452 15.8386 4.08452 15.521 4.33671C15.2035 4.5889 15.2035 4.99781 15.521 5.25L17.3855 6.73073H7.9645C7.51542 6.73073 7.15137 7.01985 7.15137 7.3765C7.15137 7.73316 7.51542 8.02228 7.9645 8.02228H17.3855L15.521 9.50301C15.2035 9.7552 15.2035 10.1641 15.521 10.4163C15.8386 10.6685 16.3534 10.6685 16.671 10.4163L19.9236 7.83315C19.9239 7.83291 19.9241 7.83266 19.9244 7.83245C19.943 7.81753 19.9607 7.80194 19.9774 7.78574Z" fill="#23262F"/>
</svg>
