<svg width="30" height="30" viewBox="0 0 30 30" fill="none" xmlns="http://www.w3.org/2000/svg">
<path d="M5 18.6064H4.0625H5ZM8.41614 22.6043L8.28737 23.5329L8.41614 22.6043ZM21.1491 22.6043L21.0203 21.6757H21.0203L21.1491 22.6043ZM8.11151 10.1087C8.11151 6.4243 11.0983 3.4375 14.7827 3.4375V1.5625C10.0628 1.5625 6.23651 5.38876 6.23651 10.1087H8.11151ZM8.11151 12.7242V10.1087H6.23651V12.7242H8.11151ZM5.9375 18.6064C5.9375 18.0046 6.10214 17.444 6.38829 16.9642L4.77792 16.0038C4.32339 16.766 4.0625 17.6572 4.0625 18.6064H5.9375ZM8.5449 21.6757C7.04536 21.4677 5.9375 20.1641 5.9375 18.6064H4.0625C4.0625 21.056 5.81764 23.1904 8.28737 23.5329L8.5449 21.6757ZM14.7826 22.2149C12.9176 22.2149 10.5081 21.9479 8.5449 21.6757L8.28737 23.5329C10.2658 23.8072 12.7817 24.0899 14.7826 24.0899V22.2149ZM21.0203 21.6757C19.0571 21.9479 16.6476 22.2149 14.7826 22.2149V24.0899C16.7835 24.0899 19.2994 23.8072 21.2778 23.5329L21.0203 21.6757ZM23.6277 18.6064C23.6277 20.1641 22.5199 21.4677 21.0203 21.6757L21.2778 23.5329C23.7476 23.1904 25.5027 21.056 25.5027 18.6064H23.6277ZM23.177 16.9643C23.4631 17.4441 23.6277 18.0046 23.6277 18.6064H25.5027C25.5027 17.6572 25.2419 16.766 24.7874 16.0039L23.177 16.9643ZM21.4539 10.1087V12.7245H23.3289V10.1087H21.4539ZM14.7827 3.4375C18.4671 3.4375 21.4539 6.4243 21.4539 10.1087H23.3289C23.3289 5.38876 19.5026 1.5625 14.7827 1.5625V3.4375ZM24.7874 16.0039C24.4013 15.3565 24.0506 14.8377 23.7614 14.2584C23.4845 13.7037 23.3289 13.2088 23.3289 12.7245H21.4539C21.4539 13.6155 21.7414 14.4098 22.0838 15.0958C22.4139 15.7571 22.8586 16.4304 23.177 16.9643L24.7874 16.0039ZM6.23651 12.7242C6.23651 13.2086 6.08085 13.7035 5.80395 14.2582C5.51476 14.8375 5.16406 15.3563 4.77792 16.0038L6.38829 16.9642C6.70667 16.4303 7.15142 15.757 7.48155 15.0956C7.82397 14.4097 8.11151 13.6153 8.11151 12.7242H6.23651Z" fill="#878D9D"/>
<path d="M17.5 26.0425C16.9158 26.9211 15.9168 27.5002 14.7826 27.5002C13.6484 27.5002 12.6494 26.9211 12.0652 26.0425" stroke="#878D9D" stroke-width="1.875" stroke-linecap="round"/>
</svg>
