<svg width="17" height="20" viewBox="0 0 17 20" fill="none" xmlns="http://www.w3.org/2000/svg">
<path d="M1.66715 3.47542L1.66667 14.1667C1.66667 16.3758 3.38589 18.1834 5.55937 18.3245L5.83333 18.3333L13.1907 18.3345C12.8471 19.3049 11.9214 20 10.8333 20H5C2.23858 20 0 17.7614 0 15V5.83333C0 4.74464 0.695905 3.81848 1.66715 3.47542ZM14.1667 0C15.5474 0 16.6667 1.11929 16.6667 2.5V14.1667C16.6667 15.5474 15.5474 16.6667 14.1667 16.6667H5.83333C4.45262 16.6667 3.33333 15.5474 3.33333 14.1667V2.5C3.33333 1.11929 4.45262 0 5.83333 0H14.1667ZM14.1667 1.66667H5.83333C5.3731 1.66667 5 2.03976 5 2.5V14.1667C5 14.6269 5.3731 15 5.83333 15H14.1667C14.6269 15 15 14.6269 15 14.1667V2.5C15 2.03976 14.6269 1.66667 14.1667 1.66667Z" fill="#FF0083"/>
</svg>
