<svg width="5" height="8" viewBox="0 0 5 8" fill="none" xmlns="http://www.w3.org/2000/svg">
<path d="M2.18314 6.40236L0.294684 5.07912C0.273578 5.06433 0.247625 5.0897 0.261921 5.11114L2.15306 7.9476C2.1992 8.01678 2.30087 8.01678 2.347 7.9476L4.23814 5.11114C4.25244 5.0897 4.22649 5.06433 4.20538 5.07912L2.31692 6.40236C2.27674 6.43048 2.2233 6.43048 2.18314 6.40236Z" fill="#62B411"/>
<path d="M4.48496 3.91236L2.35151 0.0605574C2.30714 -0.0195348 2.19198 -0.0195348 2.14761 0.0605574L0.0141602 3.91236H4.48496Z" fill="#62B411"/>
<path d="M2.24951 3.91236H4.48488L2.35145 0.0605573C2.32927 0.0205112 2.28938 0.000488281 2.24951 0.000488281V3.91236Z" fill="#62B411"/>
<path d="M2.18282 5.55539L0.0496687 4.0607C-0.0165562 4.01429 -0.0165562 3.91621 0.0496687 3.8698L2.18282 2.37511C2.22296 2.34697 2.27642 2.34697 2.31658 2.37511L4.44973 3.8698C4.51596 3.91621 4.51596 4.01429 4.44973 4.0607L2.31658 5.55539C2.27642 5.58353 2.22296 5.58353 2.18282 5.55539Z" fill="#62B411"/>
<path d="M2.31688 5.55539L4.45003 4.0607C4.51626 4.01429 4.51626 3.91621 4.45003 3.8698L2.31688 2.37511C2.29681 2.36104 2.27341 2.354 2.25 2.354V5.57648C2.27341 5.5765 2.29681 5.56946 2.31688 5.55539Z" fill="#62B411"/>
<path d="M3.86268 3.75138C3.89724 3.80185 3.88757 3.8743 3.83357 3.91236H4.48486L2.35145 0.0605573C2.32927 0.0205112 2.28938 0.000488281 2.24951 0.000488281V0.838863L3.86268 3.75138Z" fill="#62B411"/>
<path d="M2.34696 7.9476L4.2381 5.11114C4.2524 5.0897 4.22644 5.06433 4.20534 5.07912L2.31688 6.40236C2.29681 6.41643 2.27341 6.42346 2.25 6.42346V7.99949C2.28696 7.99951 2.32391 7.98222 2.34696 7.9476Z" fill="#62B411"/>
<path d="M4.45003 3.87145L3.60005 3.27588L3.86319 3.75098C3.89782 3.80153 3.88808 3.87418 3.83383 3.91217L2.25 5.02194V5.57815C2.27341 5.57815 2.29679 5.57111 2.31688 5.55704L4.45003 4.06235C4.51626 4.01594 4.51626 3.91786 4.45003 3.87145Z" fill="#62B411"/>
<path d="M4.20534 5.07912L3.20781 5.77808L2.25 7.21469V7.99951C2.28696 7.99951 2.32389 7.98222 2.34696 7.94763L4.2381 5.11116C4.25242 5.0897 4.22644 5.06433 4.20534 5.07912Z" fill="#62B411"/>
</svg>
