<svg width="341" height="164" viewBox="0 0 341 164" fill="none" xmlns="http://www.w3.org/2000/svg">
<path d="M98.7084 90.4004C100.38 95.45 98.8421 101.186 94.7017 105.389L42.8423 159.16L33.9822 150.59L85.8193 96.8405C85.953 96.7068 86.265 96.3903 86.0867 95.8511C85.9084 95.3118 85.494 95.3118 85.3157 95.3118L98.7084 90.4004Z" fill="url(#paint0_linear_365_3708)"/>
<path d="M21.5562 144.426L21.6854 144.208L51.8402 95.3164H66.463L32.8274 149.85C32.6402 150.198 32.6893 150.296 32.7338 150.38L21.5562 144.426Z" fill="url(#paint1_linear_365_3708)"/>
<path d="M58.8643 13.1253C58.7128 13.1253 58.3964 13.1253 57.8526 13.6735L13.552 58.2817C13.4183 58.4154 13.1063 58.7318 13.2846 59.2711L0.662871 64.7128C-1.01289 59.6455 0.542537 53.8828 4.71857 49.6756L49.0192 5.06739C52.2638 1.80055 56.3462 0 60.5089 0L58.8643 13.1253Z" fill="url(#paint2_linear_365_3708)"/>
<path d="M26.8822 89.9533C28.7006 93.3048 32.1903 95.3059 36.2237 95.3059H51.8448H66.4676H85.3155C85.4937 95.3059 98.7082 90.399 98.7082 90.399C97.0324 85.3316 92.531 82.1851 86.96 82.1851H74.5612H59.9384H39.5128L44.6203 72.9238H30.3541L27.2254 78.5973L27.1942 78.6553C25.1797 82.3767 25.0639 86.6018 26.8822 89.9533Z" fill="url(#paint3_linear_365_3708)"/>
<path d="M49.652 59.8059L71.4903 20.2205L71.5215 20.1626C74.004 15.5721 74.1823 10.6339 72.0029 6.62282C69.7878 2.54038 65.3845 0 60.5088 0L58.8598 13.1253C59.3634 13.1253 59.9294 13.464 60.17 13.9142C60.2948 14.1415 60.3974 14.4445 60.0364 15.1175L35.3857 59.8059H49.652Z" fill="url(#paint4_linear_365_3708)"/>
<path d="M12.4115 72.9224H28.1485H42.4147H63.4464L57.7327 82.1836H72.3555L75.7115 76.7419L75.8408 76.5235C77.9533 72.8333 78.1538 68.6037 76.38 65.2121C74.6062 61.8205 71.1344 59.7971 67.092 59.7971H49.657H35.3908H14.0605C13.8822 59.7971 13.4677 59.7971 13.2895 59.2578L0.66333 64.7085C2.33909 69.7759 6.84047 72.9224 12.4115 72.9224Z" fill="url(#paint5_linear_365_3708)"/>
<path d="M42.8419 159.159C39.7444 162.279 35.8491 163.999 31.8736 163.999C27.1494 163.999 22.9199 161.517 20.8297 157.519C18.7751 153.593 19.0425 148.819 21.5606 144.416L32.7383 150.375C32.8943 150.673 33.2686 150.869 33.5227 150.869C33.5628 150.869 33.6876 150.869 33.9817 150.584L42.8419 159.159Z" fill="url(#paint6_linear_365_3708)"/>
<path d="M138.81 119V41.4897H155.308L185.537 91.3731V41.4897H200.818V119H184.319L154.09 69.1166V119H138.81ZM216.418 119V41.4897H262.37V56.7703H231.698V69.8363H257.055V85.1169H231.698V119H216.418ZM293.247 120.439C288.597 120.439 284.352 119.314 280.513 117.062C276.675 114.811 273.611 111.784 271.323 107.982C269.071 104.144 267.946 99.8993 267.946 95.2486H283.226C283.226 97.0203 283.669 98.6628 284.555 100.176C285.441 101.689 286.64 102.907 288.154 103.83C289.667 104.716 291.365 105.159 293.247 105.159C295.056 105.159 296.717 104.716 298.23 103.83C299.78 102.907 301.017 101.689 301.94 100.176C302.862 98.6628 303.324 97.0203 303.324 95.2486C303.324 92.8126 302.659 90.7826 301.331 89.1585C300.002 87.5345 298.138 86.3165 295.739 85.5045C293.34 84.6925 290.534 84.2865 287.323 84.2865V72.6046C291.605 72.6046 294.982 71.8479 297.455 70.3346C299.928 68.7844 301.164 66.496 301.164 63.4694C301.164 61.9561 300.795 60.5905 300.057 59.3725C299.319 58.1175 298.322 57.121 297.067 56.3828C295.813 55.6077 294.428 55.2201 292.915 55.2201C291.402 55.2201 289.907 55.6077 288.431 56.3828C286.954 57.121 285.736 58.1175 284.777 59.3725C283.854 60.5905 283.392 61.9561 283.392 63.4694H268.112C268.112 60.2214 268.776 57.1763 270.105 54.3343C271.434 51.4922 273.242 49.0008 275.531 46.8601C277.856 44.6824 280.495 42.9846 283.448 41.7665C286.401 40.5485 289.501 39.9395 292.749 39.9395C296.994 39.9395 300.906 40.9914 304.486 43.0953C308.103 45.1991 311.001 48.0412 313.179 51.6214C315.356 55.1648 316.445 59.1141 316.445 63.4694C316.445 66.2376 315.818 69.0243 314.563 71.8295C313.345 74.6346 311.554 76.6462 309.192 77.8642C311.259 78.6393 312.976 79.968 314.341 81.8504C315.744 83.6959 316.796 85.8182 317.497 88.2173C318.235 90.5796 318.604 92.9233 318.604 95.2486C318.604 99.8623 317.46 104.088 315.172 107.927C312.883 111.729 309.82 114.774 305.981 117.062C302.143 119.314 297.898 120.439 293.247 120.439Z" fill="black"/>
<defs>
<linearGradient id="paint0_linear_365_3708" x1="25.9681" y1="164.74" x2="89.5513" y2="101.328" gradientUnits="userSpaceOnUse">
<stop stop-color="#00D7BE"/>
<stop offset="0.1958" stop-color="#42D68D"/>
<stop offset="0.4125" stop-color="#85D55B"/>
<stop offset="0.6093" stop-color="#B9D534"/>
<stop offset="0.779" stop-color="#DFD418"/>
<stop offset="0.9149" stop-color="#F6D406"/>
<stop offset="1" stop-color="#FFD400"/>
</linearGradient>
<linearGradient id="paint1_linear_365_3708" x1="29.1874" y1="147.044" x2="51.8315" y2="95.9714" gradientUnits="userSpaceOnUse">
<stop stop-color="#00D7BE"/>
<stop offset="1" stop-color="#1F93FF"/>
</linearGradient>
<linearGradient id="paint2_linear_365_3708" x1="5.31593" y1="59.1455" x2="53.7965" y2="6.71902" gradientUnits="userSpaceOnUse">
<stop stop-color="#FF3DC8"/>
<stop offset="1" stop-color="#FF9736"/>
</linearGradient>
<linearGradient id="paint3_linear_365_3708" x1="65.2569" y1="98.1367" x2="35.1767" y2="27.0183" gradientUnits="userSpaceOnUse">
<stop stop-color="#FFD500"/>
<stop offset="1" stop-color="#EC6047"/>
</linearGradient>
<linearGradient id="paint4_linear_365_3708" x1="73.5351" y1="94.6382" x2="43.4549" y2="23.5196" gradientUnits="userSpaceOnUse">
<stop stop-color="#FFD500"/>
<stop offset="1" stop-color="#FF9736"/>
</linearGradient>
<linearGradient id="paint5_linear_365_3708" x1="63.2912" y1="73.2833" x2="16.3629" y2="54.1809" gradientUnits="userSpaceOnUse">
<stop stop-color="#1F93FF"/>
<stop offset="1" stop-color="#FF3DC8"/>
</linearGradient>
<linearGradient id="paint6_linear_365_3708" x1="22.5369" y1="161.299" x2="86.1191" y2="97.8881" gradientUnits="userSpaceOnUse">
<stop stop-color="#00D7BE"/>
<stop offset="0.1958" stop-color="#42D68D"/>
<stop offset="0.4125" stop-color="#85D55B"/>
<stop offset="0.6093" stop-color="#B9D534"/>
<stop offset="0.779" stop-color="#DFD418"/>
<stop offset="0.9149" stop-color="#F6D406"/>
<stop offset="1" stop-color="#FFD400"/>
</linearGradient>
</defs>
</svg>
