<svg width="30" height="30" viewBox="0 0 30 30" fill="none" xmlns="http://www.w3.org/2000/svg">
<circle r="3.75" transform="matrix(-1 0 0 1 15 15)" stroke="#878D9D" stroke-width="1.875"/>
<path d="M20.6249 6.17187L21.0937 5.35998V5.35998L20.6249 6.17187ZM20.6249 23.8277L20.1562 23.0158L20.6249 23.8277ZM9.37475 23.8277L9.8435 23.0158L9.37475 23.8277ZM9.37475 6.17188L8.906 5.35998L9.37475 6.17188ZM11.1534 3.76887L10.2401 3.55753L11.1534 3.76887ZM3.63285 12.1044L3.0367 12.8279L3.63285 12.1044ZM3.19519 10.8786L2.31008 10.5696L3.19519 10.8786ZM6.63963 23.4252L6.85483 24.3377L6.63963 23.4252ZM5.50354 23.1287L6.21547 22.5188L5.50354 23.1287ZM11.9238 27.1187L12.1538 26.2098L11.9238 27.1187ZM11.1535 26.231L12.0669 26.0198L11.1535 26.231ZM18.8462 26.231L17.9328 26.0198L18.8462 26.231ZM18.0759 27.1187L18.3059 28.0275L18.0759 27.1187ZM24.4961 23.1287L23.7842 22.5188L24.4961 23.1287ZM23.36 23.4252L23.1448 24.3377L23.36 23.4252ZM26.8045 10.8786L27.6896 10.5696L26.8045 10.8786ZM26.3668 12.1044L26.9629 12.828L26.3668 12.1044ZM3.19519 19.1214L2.31008 19.4304L3.19519 19.1214ZM3.63285 17.8956L3.0367 17.1721L3.63285 17.8956ZM23.3598 6.57437L23.5749 7.48685L23.3598 6.57437ZM24.4958 6.87087L25.2077 6.26087L24.4958 6.87087ZM26.3668 17.8956L25.7706 18.6191L26.3668 17.8956ZM18.076 2.88134L17.846 3.79019L18.076 2.88134ZM17.9329 3.98022C18.2151 5.20006 18.9846 6.3074 20.1562 6.98377L21.0937 5.35998C20.3907 4.95412 19.9296 4.29225 19.7596 3.55753L17.9329 3.98022ZM20.1562 6.98377C21.2323 7.6051 22.4546 7.751 23.5749 7.48685L23.1447 5.66189C22.4707 5.82079 21.74 5.73313 21.0937 5.35998L20.1562 6.98377ZM27.6896 10.5696C27.1326 8.97421 26.2838 7.51671 25.2077 6.26087L23.7839 7.48088C24.7107 8.56254 25.4407 9.81661 25.9193 11.1876L27.6896 10.5696ZM25.9373 15C25.9373 14.1258 26.3351 13.3453 26.9629 12.828L25.7706 11.3809C24.729 12.2391 24.0623 13.5421 24.0623 15H25.9373ZM26.9629 17.172C26.3351 16.6547 25.9373 15.8742 25.9373 15H24.0623C24.0623 16.4579 24.729 17.7609 25.7706 18.6191L26.9629 17.172ZM25.208 23.7387C26.2839 22.483 27.1327 21.0256 27.6896 19.4304L25.9193 18.8124C25.4408 20.1832 24.7109 21.4372 23.7842 22.5188L25.208 23.7387ZM21.0937 24.6396C21.74 24.2664 22.4708 24.1788 23.1448 24.3377L23.5752 22.5128C22.4548 22.2485 21.2324 22.3944 20.1562 23.0158L21.0937 24.6396ZM19.7596 26.4423C19.9295 25.7075 20.3906 25.0455 21.0937 24.6396L20.1562 23.0158C18.9845 23.6922 18.215 24.7998 17.9328 26.0198L19.7596 26.4423ZM14.9998 28.4375C16.1395 28.4375 17.2472 28.2954 18.3059 28.0275L17.8459 26.2098C16.9364 26.44 15.9831 26.5625 14.9998 26.5625V28.4375ZM11.6938 28.0275C12.7524 28.2954 13.8602 28.4375 14.9998 28.4375V26.5625C14.0166 26.5625 13.0632 26.44 12.1538 26.2098L11.6938 28.0275ZM8.906 24.6396C9.60906 25.0455 10.0702 25.7075 10.2401 26.4423L12.0669 26.0198C11.7847 24.7998 11.0152 23.6922 9.8435 23.0158L8.906 24.6396ZM6.85483 24.3377C7.52883 24.1788 8.25962 24.2664 8.906 24.6396L9.8435 23.0158C8.76724 22.3944 7.54484 22.2485 6.42442 22.5128L6.85483 24.3377ZM2.31008 19.4304C2.86698 21.0256 3.71571 22.483 4.79162 23.7387L6.21547 22.5188C5.28877 21.4372 4.55887 20.1832 4.0803 18.8124L2.31008 19.4304ZM4.06232 15C4.06232 15.8742 3.66459 16.6547 3.0367 17.1721L4.229 18.6191C5.27063 17.7609 5.93732 16.4579 5.93732 15H4.06232ZM3.0367 12.8279C3.66459 13.3453 4.06232 14.1258 4.06232 15H5.93732C5.93732 13.5421 5.27063 12.2391 4.229 11.3809L3.0367 12.8279ZM4.79198 6.26087C3.71589 7.5167 2.86704 8.9742 2.31008 10.5696L4.0803 11.1876C4.55893 9.8166 5.28894 8.56253 6.21578 7.48087L4.79198 6.26087ZM8.906 5.35998C8.25968 5.73313 7.52895 5.8208 6.855 5.66189L6.4247 7.48685C7.54505 7.75101 8.76733 7.6051 9.8435 6.98377L8.906 5.35998ZM10.2401 3.55753C10.07 4.29225 9.60897 4.95412 8.906 5.35998L9.8435 6.98377C11.015 6.3074 11.7845 5.20005 12.0668 3.98022L10.2401 3.55753ZM14.9998 1.5625C13.8602 1.5625 12.7523 1.70459 11.6937 1.97249L12.1537 3.79019C13.0632 3.56003 14.0165 3.4375 14.9998 3.4375V1.5625ZM18.306 1.97249C17.2473 1.70459 16.1395 1.5625 14.9998 1.5625V3.4375C15.9831 3.4375 16.9365 3.56003 17.846 3.79019L18.306 1.97249ZM12.0668 3.98022C12.0863 3.89588 12.1194 3.83639 12.145 3.8052C12.167 3.7784 12.171 3.78581 12.1537 3.79019L11.6937 1.97249C10.8297 2.19112 10.3836 2.93728 10.2401 3.55753L12.0668 3.98022ZM4.229 11.3809C4.1529 11.3182 4.10866 11.2503 4.09091 11.2049C4.07599 11.1668 4.08698 11.1685 4.0803 11.1876L2.31008 10.5696C1.97756 11.5221 2.49275 12.3798 3.0367 12.8279L4.229 11.3809ZM6.42442 22.5128C6.34038 22.5326 6.27255 22.5293 6.23322 22.5202C6.1994 22.5123 6.20405 22.5054 6.21547 22.5188L4.79162 23.7387C5.37043 24.4143 6.23537 24.4838 6.85483 24.3377L6.42442 22.5128ZM12.1538 26.2098C12.1711 26.2142 12.1671 26.2216 12.1451 26.1948C12.1195 26.1636 12.0864 26.1041 12.0669 26.0198L10.2401 26.4423C10.3836 27.0626 10.8297 27.8089 11.6938 28.0275L12.1538 26.2098ZM17.9328 26.0198C17.9133 26.1041 17.8802 26.1636 17.8546 26.1948C17.8325 26.2216 17.8286 26.2142 17.8459 26.2098L18.3059 28.0275C19.1699 27.8089 19.6161 27.0626 19.7596 26.4423L17.9328 26.0198ZM23.7842 22.5188C23.7956 22.5054 23.8002 22.5123 23.7664 22.5202C23.7271 22.5293 23.6593 22.5326 23.5752 22.5128L23.1448 24.3377C23.7643 24.4838 24.6292 24.4143 25.208 23.7387L23.7842 22.5188ZM25.9193 11.1876C25.9127 11.1685 25.9237 11.1668 25.9087 11.205C25.891 11.2503 25.8467 11.3182 25.7706 11.3809L26.9629 12.828C27.5069 12.3798 28.0221 11.5221 27.6896 10.5696L25.9193 11.1876ZM4.0803 18.8124C4.08698 18.8315 4.07599 18.8332 4.09091 18.7951C4.10866 18.7497 4.1529 18.6818 4.229 18.6191L3.0367 17.1721C2.49275 17.6202 1.97756 18.4779 2.31008 19.4304L4.0803 18.8124ZM23.5749 7.48685C23.659 7.46704 23.7268 7.4703 23.7661 7.47945C23.7999 7.48733 23.7953 7.4942 23.7839 7.48088L25.2077 6.26087C24.6289 5.58542 23.7641 5.51585 23.1447 5.66189L23.5749 7.48685ZM6.21578 7.48087C6.20436 7.4942 6.19971 7.48732 6.23353 7.47945C6.27285 7.47029 6.34067 7.46703 6.4247 7.48685L6.855 5.66189C6.23559 5.51584 5.37075 5.58541 4.79198 6.26087L6.21578 7.48087ZM25.7706 18.6191C25.8467 18.6818 25.891 18.7497 25.9087 18.795C25.9237 18.8332 25.9127 18.8315 25.9193 18.8124L27.6896 19.4304C28.0221 18.4779 27.5069 17.6202 26.9629 17.172L25.7706 18.6191ZM19.7596 3.55753C19.6161 2.93728 19.17 2.19113 18.306 1.97249L17.846 3.79019C17.8287 3.78581 17.8326 3.7784 17.8546 3.8052C17.8803 3.8364 17.9134 3.89589 17.9329 3.98022L19.7596 3.55753Z" fill="#878D9D"/>
</svg>
